<svg width="188" height="44" viewBox="0 0 188 44" fill="none" xmlns="http://www.w3.org/2000/svg">
<path d="M20.3021 12.627H0.380859V18.6986H20.3021V12.627Z" fill="#F1AA1E"/>
<path d="M8.13672 5.42188C8.13672 6.43393 8.13672 6.9398 8.13672 6.9398C8.13672 7.44567 8.13672 7.95185 8.13672 8.45772C8.13672 8.96359 8.13672 9.46978 8.13672 9.97564C8.13672 9.97564 8.13672 10.4815 8.13672 11.4936C8.13672 11.4936 10.1644 11.4936 11.1784 11.4936C11.4554 11.4936 11.7325 11.4936 12.0095 11.4936C12.2866 11.4936 12.5636 11.4936 12.8406 11.4936C13.3947 11.4936 13.9491 11.4936 14.5032 11.4936C15.6116 11.4936 16.7198 11.4936 17.8282 11.4936C18.9367 11.4936 20.0448 11.4936 21.1533 11.4936C21.2484 11.4936 21.3435 11.4936 21.4386 11.4936C21.4386 11.6828 21.4386 11.8723 21.4386 12.0614C21.4386 12.6616 21.4386 13.2621 21.4386 13.8622C21.4386 14.4623 21.4386 15.0628 21.4386 15.663C21.4386 16.675 21.4386 18.6988 21.4386 18.6988C22.4526 18.6988 22.9594 18.6988 22.9594 18.6988C23.4663 18.6988 23.9734 18.6988 24.4803 18.6988C24.9871 18.6988 25.4943 18.6988 26.0011 18.6988C26.0011 18.6988 26.5079 18.6988 27.5219 18.6988C27.5219 18.6988 27.5219 16.675 27.5219 15.663C27.5219 15.0628 27.5219 14.4623 27.5219 13.8622C27.5219 13.2621 27.5219 12.6616 27.5219 12.0614C27.5219 11.0503 27.5219 10.0389 27.5219 9.02781C27.5219 7.8272 27.5219 6.6266 27.5219 5.42599C27.5219 5.42472 27.5219 5.42346 27.5219 5.42188C27.5207 5.42188 27.5194 5.42188 27.5178 5.42188C25.3963 5.42188 23.2748 5.42188 21.1533 5.42188C20.0448 5.42188 18.9367 5.42188 17.8282 5.42188C16.7198 5.42188 15.6116 5.42188 14.5032 5.42188C13.9491 5.42188 13.3947 5.42188 12.8406 5.42188C12.5636 5.42188 12.2866 5.42188 12.0095 5.42188C11.7325 5.42188 11.4554 5.42188 11.1784 5.42188C10.1644 5.42187 8.13672 5.42188 8.13672 5.42188Z" fill="#54297B"/>
<path d="M50.2449 19.833H44.1621V25.9041H50.2449V19.833Z" fill="#045F7D"/>
<path d="M28.6576 12.627C28.6576 13.639 28.6576 14.1449 28.6576 14.1449C28.6576 14.6507 28.6576 15.1569 28.6576 15.6628C28.6576 16.1687 28.6576 16.6749 28.6576 17.1807C28.6576 17.1807 28.6576 17.6866 28.6576 18.6986C28.6576 18.6986 30.6853 18.6986 31.6993 18.6986C33.4471 18.6986 35.1945 18.6986 36.9423 18.6986C36.9423 18.8878 36.9423 19.0773 36.9423 19.2665C36.9423 20.4671 36.9423 21.6677 36.9423 22.8683C36.9423 24.069 36.9423 25.2696 36.9423 26.4702C36.9423 26.6594 36.9423 26.8489 36.9423 27.0381C36.6637 27.0381 36.3851 27.0381 36.1065 27.0381C34.8148 27.0381 33.5228 27.0381 32.2311 27.0381C30.9395 27.0381 29.6475 27.0381 28.3558 27.0381C27.7098 27.0381 27.0641 27.0381 26.4182 27.0381C26.0952 27.0381 25.7722 27.0381 25.4492 27.0381C25.1262 27.0381 24.8032 27.0381 24.4802 27.0381C23.4662 27.0381 21.4385 27.0381 21.4385 27.0381C21.4385 28.0501 21.4385 28.556 21.4385 28.556C21.4385 29.0618 21.4385 29.568 21.4385 30.0739C21.4385 30.5798 21.4385 31.086 21.4385 31.5918C21.4385 31.5918 21.4385 32.0977 21.4385 33.1097C21.4385 33.1097 23.4662 33.1097 24.4802 33.1097C24.8032 33.1097 25.1262 33.1097 25.4492 33.1097C25.7722 33.1097 26.0952 33.1097 26.4182 33.1097C27.0641 33.1097 27.7098 33.1097 28.3558 33.1097C29.6475 33.1097 30.9395 33.1097 32.2311 33.1097C33.5228 33.1097 34.8148 33.1097 36.1065 33.1097C38.4115 33.1097 40.7166 33.1097 43.0216 33.1097C43.0229 33.1097 43.0241 33.1097 43.0257 33.1097C43.0257 33.1085 43.0257 33.1072 43.0257 33.1056C43.0257 30.8939 43.0257 28.6819 43.0257 26.4702C43.0257 25.2696 43.0257 24.069 43.0257 22.8683C43.0257 21.6677 43.0257 20.4671 43.0257 19.2665C43.0257 17.0548 43.0257 14.8428 43.0257 12.6311C43.0257 12.6298 43.0257 12.6285 43.0257 12.627C43.0245 12.627 43.0232 12.627 43.0216 12.627C39.2474 12.627 35.4735 12.627 31.6993 12.627C30.6853 12.627 28.6576 12.627 28.6576 12.627Z" fill="#A81F23"/>
<path d="M35.8057 25.9047C35.8057 24.8926 35.8057 24.3868 35.8057 24.3868V22.8689V21.3509C35.8057 21.3509 35.8057 20.8451 35.8057 19.833H32.7641H11.1774H8.13574C8.13574 20.8451 8.13574 21.3509 8.13574 21.3509V22.8689V24.3868C8.13574 24.3868 8.13574 24.8926 8.13574 25.9047H11.1774H32.7641H35.8057Z" fill="#045F7D"/>
<path d="M82.9494 33.1096H75.6751V30.8355H75.5952C74.3162 32.8701 71.7985 33.7875 69.4003 33.7875C63.3251 33.7875 59.0488 28.7213 59.0488 22.8574C59.0488 16.9936 63.2453 11.9672 69.3204 11.9672C71.6784 11.9672 74.1565 12.8448 75.6754 14.6398V12.6451H82.9497V33.1096H82.9494ZM66.5624 22.8976C66.5624 25.4905 68.281 27.4849 71.2387 27.4849C74.1964 27.4849 75.9151 25.4905 75.9151 22.8976C75.9151 20.3844 74.1964 18.2701 71.2387 18.2701C68.2814 18.2701 66.5624 20.3844 66.5624 22.8976ZM92.6615 20.0253L100.215 12.6455H110.167L99.8952 22.0997L110.806 33.1096H100.615L92.6612 24.7724V33.1096H85.3869V0H92.6612V20.0253H92.6615ZM132.668 22.8976C132.668 29.8384 126.913 33.7879 120.318 33.7879C113.763 33.7879 107.968 29.8785 107.968 22.8976C107.968 15.9167 113.724 11.9675 120.318 11.9675C126.913 11.9675 132.668 15.9167 132.668 22.8976ZM115.642 22.8976C115.642 25.4905 117.361 27.4849 120.318 27.4849C123.276 27.4849 124.995 25.4905 124.995 22.8976C124.995 20.3844 123.276 18.2701 120.318 18.2701C117.361 18.2701 115.642 20.3844 115.642 22.8976ZM130.55 12.6455H138.943L144.419 23.1368L149.774 12.6455H158.048L141.621 43.3215H133.468L140.462 30.317L130.55 12.6455ZM179.91 33.1096H172.636V30.8355H172.556C171.277 32.8701 168.76 33.7875 166.361 33.7875C160.286 33.7875 156.01 28.7213 156.01 22.8574C156.01 16.9936 160.206 11.9672 166.281 11.9672C168.639 11.9672 171.118 12.8448 172.636 14.6398V12.6451H179.911V33.1096H179.91ZM163.323 22.8976C163.323 25.4905 165.042 27.4849 168 27.4849C170.957 27.4849 172.676 25.4905 172.676 22.8976C172.676 20.3844 170.957 18.2701 168 18.2701C165.042 18.2701 163.323 20.3844 163.323 22.8976Z" fill="#06181E"/>
<path d="M187.524 12.6292C187.524 14.1933 186.294 15.4211 184.693 15.4211C183.109 15.4211 181.846 14.1936 181.846 12.6292C181.846 11.0986 183.109 9.87109 184.693 9.87109C186.294 9.87109 187.524 11.0986 187.524 12.6292ZM182.553 12.6292C182.553 13.857 183.464 14.8323 184.711 14.8323C185.924 14.8323 186.817 13.857 186.817 12.6459C186.817 11.4181 185.924 10.426 184.694 10.426C183.464 10.426 182.553 11.4181 182.553 12.6292ZM184.255 14.0756H183.615V11.3175C183.868 11.2669 184.222 11.2334 184.677 11.2334C185.199 11.2334 185.435 11.3175 185.637 11.4352C185.789 11.5529 185.907 11.7715 185.907 12.0407C185.907 12.3435 185.671 12.5789 185.334 12.6798V12.7133C185.603 12.8142 185.755 13.0161 185.839 13.3862C185.924 13.8067 185.974 13.9747 186.041 14.0756H185.35C185.266 13.9747 185.216 13.7225 185.131 13.403C185.081 13.1002 184.912 12.9658 184.559 12.9658H184.255V14.0756ZM184.272 12.5115H184.575C184.929 12.5115 185.216 12.3938 185.216 12.1078C185.216 11.8557 185.03 11.6873 184.626 11.6873C184.458 11.6873 184.339 11.7041 184.272 11.7209V12.5115Z" fill="#06181E"/>
</svg>
