<svg width="146" height="165" viewBox="0 0 146 165" fill="none" xmlns="http://www.w3.org/2000/svg">
<path d="M49.2198 114.5C44.9943 110.236 41.6516 105.18 39.3831 99.6223C37.1146 94.0643 35.9649 88.1134 35.9998 82.1104C35.9844 76.1075 37.166 70.1619 39.4754 64.621C41.7848 59.0802 45.1757 54.0554 49.4498 49.8404C51.2806 48.213 52.7601 46.2291 53.7975 44.01C54.8349 41.791 55.4085 39.3836 55.4832 36.9351C55.5578 34.4867 55.1319 32.0488 54.2315 29.7707C53.3312 27.4926 51.9753 25.4222 50.2469 23.6864C48.5186 21.9505 46.4541 20.5857 44.1799 19.6755C41.9058 18.7653 39.4697 18.3288 37.021 18.3929C34.5723 18.4569 32.1624 19.0201 29.9389 20.0479C27.7154 21.0757 25.725 22.5466 24.0898 24.3704C8.72985 39.6396 0.0640587 60.3848 -0.00157755 82.0429C-0.0672138 103.701 8.47268 124.498 23.7398 139.86C25.3697 141.682 27.3535 143.152 29.5702 144.181C31.7868 145.211 34.19 145.778 36.6331 145.849C39.0762 145.92 41.5081 145.492 43.7805 144.592C46.0529 143.692 48.1182 142.339 49.8505 140.614C51.5829 138.89 52.9459 136.831 53.8566 134.563C54.7673 132.295 55.2065 129.865 55.1474 127.422C55.0884 124.978 54.5324 122.573 53.5133 120.351C52.4942 118.13 51.0333 116.139 49.2198 114.5V114.5Z" fill="#FFDA00"/>
<path d="M49.4497 49.8401C58.0634 41.3129 69.7066 36.5487 81.8272 36.5918C93.9478 36.6349 105.557 41.4818 114.11 50.0701C115.734 51.9106 117.717 53.3994 119.938 54.4451C122.159 55.4907 124.57 56.0711 127.024 56.1505C129.477 56.2299 131.921 55.8066 134.204 54.9068C136.488 54.0069 138.564 52.6494 140.304 50.9178C142.043 49.1862 143.411 47.1171 144.321 44.8376C145.232 42.558 145.667 40.1164 145.599 37.6626C145.531 35.2089 144.962 32.795 143.927 30.5693C142.892 28.3435 141.412 26.353 139.58 24.7201C132.048 17.0914 123.084 11.0257 113.201 6.8714C103.318 2.7171 92.7125 0.556066 81.9923 0.512394C71.2722 0.468722 60.649 2.54328 50.7329 6.61691C40.8169 10.6906 31.8032 16.683 24.2097 24.2501C22.3722 25.8692 20.8844 27.8461 19.8374 30.06C18.7904 32.2739 18.2061 34.6782 18.1204 37.1257C18.0347 39.5732 18.4493 42.0124 19.3389 44.2941C20.2285 46.5758 21.5744 48.652 23.2941 50.3956C25.0139 52.1392 27.0713 53.5135 29.3405 54.4344C31.6098 55.3553 34.0431 55.8035 36.4915 55.7515C38.94 55.6995 41.3521 55.1485 43.5802 54.132C45.8083 53.1156 47.8055 51.6552 49.4497 49.8401V49.8401Z" fill="#67B3FF"/>
<path d="M114 114.73C109.737 118.964 104.681 122.315 99.1215 124.592C93.5618 126.869 87.6075 128.027 81.5996 128C75.5933 128.009 69.6455 126.819 64.1044 124.501C58.5634 122.183 53.5405 118.783 49.3296 114.5C47.7023 112.669 45.7183 111.189 43.4993 110.152C41.2802 109.115 38.8728 108.541 36.4244 108.466C33.9759 108.392 31.538 108.818 29.2599 109.718C26.9818 110.618 24.9115 111.974 23.1756 113.703C21.4398 115.431 20.075 117.495 19.1648 119.77C18.2545 122.044 17.8181 124.48 17.8821 126.929C17.9462 129.377 18.5093 131.787 19.5371 134.011C20.565 136.234 22.0358 138.224 23.8596 139.86C31.4042 147.488 40.3801 153.552 50.2727 157.705C60.1653 161.858 70.7803 164.017 81.5091 164.06C92.238 164.103 102.87 162.028 112.795 157.954C122.721 153.88 131.745 147.888 139.35 140.32C141.03 138.655 142.366 136.676 143.281 134.495C144.197 132.314 144.673 129.975 144.685 127.61C144.696 125.245 144.241 122.9 143.346 120.711C142.451 118.522 141.134 116.53 139.47 114.85C137.805 113.17 135.826 111.834 133.645 110.918C131.464 110.003 129.125 109.526 126.759 109.515C124.394 109.504 122.05 109.958 119.861 110.853C117.672 111.748 115.68 113.065 114 114.73V114.73Z" fill="#EB5A68"/>
<path d="M49.4499 49.8399C46.927 52.3598 43.7125 54.0737 40.2142 54.764C36.7158 55.4543 33.0913 55.09 29.8002 53.7173C26.5092 52.3446 23.7001 50.0254 21.7291 47.0538C19.7582 44.0822 18.7142 40.5922 18.7297 37.0264C18.7451 33.4606 19.8193 29.9798 21.816 27.0254C23.8127 24.0711 26.6418 21.7763 29.9446 20.4322C33.2474 19.0881 36.875 18.7553 40.3672 19.4759C43.8595 20.1966 47.059 21.9382 49.5599 24.4799C52.8918 27.8661 54.7499 32.4321 54.7293 37.1826C54.7087 41.933 52.811 46.4828 49.4499 49.8399Z" fill="#47A1FF"/>
<path d="M49.1001 139.86C46.5763 142.379 43.3611 144.091 39.8625 144.78C36.3638 145.469 32.7394 145.103 29.449 143.729C26.1585 142.355 23.3503 140.035 21.3805 137.063C19.4107 134.09 18.3681 130.6 18.385 127.034C18.4018 123.468 19.4774 119.988 21.4752 117.034C23.4731 114.081 26.3031 111.787 29.6065 110.444C32.9098 109.101 36.5375 108.77 40.0294 109.492C43.5214 110.214 46.7202 111.957 49.2201 114.5C52.5507 117.887 54.407 122.454 54.3846 127.204C54.3621 131.955 52.4626 136.504 49.1001 139.86V139.86Z" fill="#D5465F"/>
</svg>
