<svg width="880" height="166" viewBox="0 0 880 166" fill="none" xmlns="http://www.w3.org/2000/svg">
<g clip-path="url(#clip0_616_16)">
<path fill-rule="evenodd" clip-rule="evenodd" d="M78.091 0L84.058 5.676C99.096 19.982 119.381 28.743 141.721 28.743C142.077 28.743 142.432 28.741 142.786 28.737L149.149 28.657L151.137 34.729C154.489 44.9894 156.192 55.7168 156.182 66.511C156.182 113.902 123.913 153.701 80.254 164.988L78.091 165.547L75.928 164.988C32.27 153.701 0 113.902 0 66.511C0 55.426 1.769 44.739 5.045 34.729L7.033 28.657L13.396 28.737C13.75 28.741 14.106 28.743 14.461 28.743C36.801 28.743 57.086 19.982 72.125 5.676L78.09 0H78.091ZM19.846 46.033C18.1852 52.7322 17.3483 59.609 17.354 66.511C17.354 104.97 43.016 137.43 78.091 147.517C113.166 137.43 138.829 104.97 138.829 66.511C138.829 59.44 137.963 52.581 136.336 46.033C114.327 44.873 94.17 36.646 78.091 23.58C62.012 36.646 41.856 44.873 19.846 46.033V46.033Z" fill="#8B5CF6"/>
<path d="M275.081 58.0453C264.876 58.0453 256.955 61.8733 252.385 68.7633V29.5643H232.735V136.748H252.385V95.4063C252.385 82.0853 259.544 76.4193 269.141 76.4193C277.976 76.4193 284.221 81.7793 284.221 92.1913V136.748H303.871V89.7413C303.871 69.3763 291.228 58.0453 275.081 58.0453V58.0453ZM334.206 106.584H391.632C392.089 103.981 392.394 101.378 392.394 98.4683C392.394 75.9603 376.4 58.0453 353.856 58.0453C329.94 58.0453 313.642 75.6543 313.642 98.4683C313.642 121.283 329.788 138.892 355.379 138.892C370.002 138.892 381.427 132.92 388.586 122.508L372.744 113.321C369.393 117.762 363.3 120.977 355.684 120.977C345.325 120.977 336.947 116.69 334.206 106.584ZM333.901 91.2723C336.186 81.4723 343.345 75.8073 353.856 75.8073C362.081 75.8073 370.307 80.2473 372.744 91.2723H333.901V91.2723ZM422.718 73.3573V60.1883H403.068V136.748H422.718V100.153C422.718 84.0753 435.666 79.4823 445.871 80.7073V58.6573C436.275 58.6573 426.678 62.9453 422.718 73.3573ZM487.745 138.892C510.137 138.892 528.111 121.283 528.111 98.4683C528.111 75.6543 510.137 58.0453 487.745 58.0453C465.353 58.0453 447.531 75.6543 447.531 98.4683C447.531 121.283 465.353 138.892 487.745 138.892ZM487.745 119.599C476.168 119.599 467.181 110.871 467.181 98.4693C467.181 86.0663 476.168 77.3383 487.745 77.3383C499.474 77.3383 508.461 86.0663 508.461 98.4683C508.461 110.871 499.474 119.599 487.745 119.599ZM548.637 51.0013C555.339 51.0013 560.823 45.4893 560.823 38.9053C560.823 32.3213 555.339 26.6553 548.637 26.6553C542.087 26.6553 536.603 32.3213 536.603 38.9053C536.635 42.0999 537.913 45.156 540.164 47.4223C542.409 49.6821 545.452 50.968 548.637 51.0023V51.0013ZM538.888 136.748H558.538V60.1883H538.888V136.748ZM609.73 138.892C624.658 138.892 637.606 130.93 644.156 118.987L627.096 109.187C624.049 115.465 617.499 119.293 609.578 119.293C597.849 119.293 589.166 110.565 589.166 98.4683C589.166 86.2183 597.849 77.4913 609.578 77.4913C617.347 77.4913 623.897 81.4723 626.943 87.7513L643.851 77.7973C637.606 66.0073 624.658 58.0453 609.73 58.0453C586.577 58.0453 569.516 75.6543 569.516 98.4683C569.516 121.283 586.577 138.892 609.73 138.892ZM686.563 138.892C708.954 138.892 726.929 121.283 726.929 98.4683C726.929 75.6543 708.954 58.0453 686.563 58.0453C664.171 58.0453 646.349 75.6543 646.349 98.4683C646.349 121.283 664.171 138.892 686.563 138.892V138.892ZM686.563 119.599C674.986 119.599 665.999 110.871 665.999 98.4693C665.999 86.0663 674.986 77.3383 686.563 77.3383C698.292 77.3383 707.279 86.0663 707.279 98.4683C707.279 110.871 698.292 119.599 686.563 119.599ZM780.053 58.0453C769.847 58.0453 761.926 61.8733 757.356 68.7633V60.1883H737.706V136.748H757.356V95.4063C757.356 82.0853 764.515 76.4193 774.112 76.4193C782.947 76.4193 789.192 81.7793 789.192 92.1913V136.748H808.842V89.7413C808.842 69.3763 796.199 58.0453 780.053 58.0453V58.0453ZM840.7 81.9303C840.7 77.7963 844.66 75.6533 849.535 75.6533C855.171 75.6533 859.436 78.5623 861.721 83.4623L878.477 74.2743C872.536 63.7093 861.873 58.0443 849.535 58.0443C833.845 58.0443 820.593 66.7723 820.593 82.3903C820.593 109.339 859.893 103.214 859.893 114.392C859.893 118.832 855.628 120.976 849.383 120.976C841.766 120.976 836.587 117.301 834.455 111.023L817.394 120.67C822.878 132.46 834.15 138.891 849.383 138.891C865.681 138.891 880 130.929 880 114.392C880 86.2183 840.7 93.2623 840.7 81.9303V81.9303Z" fill="#0F172A"/>
</g>
<defs>
<clipPath id="clip0_616_16">
<rect width="880" height="166" fill="white"/>
</clipPath>
</defs>
</svg>
