<svg width="14" height="14" viewBox="0 0 14 14" fill="none" xmlns="http://www.w3.org/2000/svg">
<g clip-path="url(#clip0_616_19)">
<path d="M7 0H0V14H7V0Z" fill="black"/>
<path d="M10.5 7C11.4283 7 12.3185 6.63125 12.9749 5.97487C13.6313 5.3185 14 4.42826 14 3.5C14 2.57174 13.6313 1.6815 12.9749 1.02513C12.3185 0.368749 11.4283 0 10.5 0C9.57174 0 8.6815 0.368749 8.02513 1.02513C7.36875 1.6815 7 2.57174 7 3.5C7 4.42826 7.36875 5.3185 8.02513 5.97487C8.6815 6.63125 9.57174 7 10.5 7ZM10.5 14C11.4283 14 12.3185 13.6313 12.9749 12.9749C13.6313 12.3185 14 11.4283 14 10.5C14 9.57174 13.6313 8.6815 12.9749 8.02513C12.3185 7.36875 11.4283 7 10.5 7C9.57174 7 8.6815 7.36875 8.02513 8.02513C7.36875 8.6815 7 9.57174 7 10.5C7 11.4283 7.36875 12.3185 8.02513 12.9749C8.6815 13.6313 9.57174 14 10.5 14V14Z" fill="black"/>
</g>
<defs>
<clipPath id="clip0_616_19">
<rect width="14" height="14" fill="white"/>
</clipPath>
</defs>
</svg>
