<svg width="132" height="132" viewBox="0 0 132 132" fill="none" xmlns="http://www.w3.org/2000/svg">
<path d="M130.15 81.071L120.438 71.3407C120.203 71.1083 119.851 71.0397 119.545 71.1666C119.239 71.2935 119.039 71.5912 119.038 71.9221L119.037 88.2046C118.999 98.796 117.857 102.719 115.747 106.675C113.649 110.647 110.405 113.897 106.437 116.003C102.422 118.156 98.4436 119.301 87.4664 119.301H75.5861C74.4964 119.301 73.4506 119.736 72.6827 120.508L62.9744 130.238V130.234C62.7398 130.469 62.6693 130.822 62.7956 131.129C62.9219 131.436 63.2202 131.637 63.5521 131.638H89.2545C103.892 131.638 109.201 130.11 114.555 127.247C119.845 124.438 124.169 120.104 126.965 114.807C129.828 109.443 131.353 104.122 131.353 89.4556V83.9817C131.353 82.892 130.918 81.8425 130.15 81.071Z" fill="#212735"/>
<path d="M11.1161 72.8399L1.40049 63.1097C1.16487 62.8773 0.812934 62.8087 0.507277 62.9355C0.201619 63.0624 0.00174656 63.3601 0 63.6911L0.000881915 90.0577C0.0426141 104.266 1.56458 109.514 4.38795 114.803C7.18498 120.101 11.5103 124.435 16.8022 127.243C22.1555 130.11 27.4612 131.638 42.0987 131.638H47.5617C48.6477 131.638 49.6935 131.203 50.4614 130.432L60.1771 120.701C60.4125 120.466 60.4825 120.111 60.3544 119.804C60.2262 119.496 59.9252 119.296 59.592 119.297H43.8904C32.9133 119.297 28.9312 118.153 24.9162 115.999C20.9493 113.893 17.707 110.643 15.6101 106.671C13.46 102.649 12.3192 98.6594 12.3192 87.6566V75.7506C12.3192 74.6609 11.884 73.6115 11.1161 72.8399Z" fill="#212735"/>
<path d="M109.629 60.5098L99.9172 50.7686C99.6819 50.5336 99.3283 50.4633 99.0211 50.5905C98.7138 50.7178 98.5134 51.0174 98.5131 51.35V90.5124C98.5144 91.5052 98.336 92.4901 97.9865 93.4194C97.588 94.5164 96.9517 95.5403 96.0741 96.4178L83.4222 109.688V109.691C83.1958 109.929 83.133 110.279 83.2617 110.581C83.3905 110.883 83.6863 111.079 84.0146 111.081H94.4104C103.479 111.081 110.829 103.713 110.829 94.6261V63.4205C110.829 62.3271 110.397 61.2814 109.629 60.5098Z" fill="#212735"/>
<path d="M21.9105 83.605H21.9141C21.6762 83.3786 21.3267 83.3158 21.0247 83.4446C20.7228 83.5733 20.5262 83.8692 20.5246 84.1974V94.6151C20.5198 98.9744 22.2468 103.157 25.3258 106.243C28.4049 109.329 32.5836 111.065 36.9429 111.07H68.0827C69.1687 111.07 70.2145 110.635 70.9824 109.867L80.7017 100.133C80.9362 99.8982 81.0067 99.5454 80.8804 99.2385C80.7541 98.9316 80.4558 98.7306 80.1239 98.7288H41.0493C40.0254 98.7288 39.0454 98.5423 38.1459 98.1986C37.0562 97.8 36.0287 97.1638 35.1548 96.2862L21.9105 83.605Z" fill="#212735"/>
<path d="M48.0915 21.0686C47.9628 20.7666 47.6669 20.5701 47.3386 20.5685H36.9429C27.8744 20.5685 20.5246 27.9366 20.5246 37.0233V68.2289C20.524 69.3185 20.9553 70.3638 21.724 71.136L31.436 80.8772C31.6711 81.1092 32.0222 81.178 32.3275 81.052C32.6329 80.9261 32.8333 80.6297 32.8365 80.2995V41.137C32.8363 40.144 33.016 39.1591 33.3667 38.23C33.7653 37.133 34.3979 36.1092 35.2754 35.2316L47.931 21.958C48.1574 21.7201 48.2202 21.3705 48.0915 21.0686Z" fill="#212735"/>
<path d="M126.965 16.8351C124.169 11.538 119.845 7.20379 114.555 4.39526C109.201 1.52847 103.892 0 89.2545 0H83.7952C82.7055 0 81.6597 0.435138 80.8918 1.20669L71.1835 10.937C70.949 11.1718 70.8785 11.5245 71.0048 11.8314C71.131 12.1384 71.4294 12.3393 71.7612 12.3411H87.4664C98.4436 12.3411 102.426 13.4856 106.437 15.6394C110.405 17.745 113.649 20.995 115.747 24.9674C117.893 28.9897 119.038 32.9791 119.038 43.9819V55.8878C119.037 56.9791 119.47 58.0261 120.241 58.7985L129.949 68.5251V68.5288C130.184 68.7638 130.538 68.834 130.845 68.7068C131.152 68.5796 131.353 68.2799 131.353 67.9474L131.352 41.5807C131.311 27.372 129.789 22.1249 126.965 16.8351Z" fill="#212735"/>
<path d="M68.5576 0.50967C68.4313 0.202752 68.133 0.0017624 67.8011 0L41.4907 0.000884021C27.3137 0.0427156 22.0775 1.56828 16.7985 4.39526C11.508 7.20379 7.18401 11.538 4.38795 16.8351C1.52481 22.1994 0 27.5197 0 42.1865V47.6604C0 48.7523 0.434441 49.7993 1.20669 50.5711L10.9114 60.3014C11.147 60.5338 11.4989 60.6024 11.8046 60.4755C12.1102 60.3486 12.3101 60.0509 12.3119 59.72V43.9819C12.3119 32.9791 13.4564 28.9897 15.6028 24.9674C17.7007 20.995 20.9443 17.745 24.9126 15.6394C28.9275 13.4856 32.9096 12.3411 43.8868 12.3411H55.7672C56.8568 12.3411 57.899 11.906 58.6705 11.1344L68.3789 1.40414C68.6134 1.16933 68.6839 0.816587 68.5576 0.50967Z" fill="#212735"/>
<path d="M110.829 37.0233C110.829 27.9366 103.479 20.5685 94.4104 20.5685H63.2706C62.1809 20.5685 61.1387 21.0036 60.3709 21.7715L50.6479 31.5055C50.4129 31.7408 50.3426 32.0944 50.4699 32.4016C50.5971 32.7089 50.8968 32.9093 51.2293 32.9096H90.304C91.2959 32.9088 92.2797 33.0884 93.2073 33.4398C94.3007 33.8384 95.3245 34.4746 96.2021 35.3522L109.439 48.0334C109.677 48.2598 110.027 48.3226 110.329 48.1939C110.63 48.0651 110.827 47.7693 110.829 47.441V37.0233Z" fill="#212735"/>
</svg>
