<svg width="155" height="31" viewBox="0 0 155 31" fill="none" xmlns="http://www.w3.org/2000/svg">
<path d="M7.7002 26.4004L0.200195 5.90039H1.9002L8.7002 24.8004H9.0002L15.8002 5.90039H17.3002L9.9002 26.4004H7.7002Z" fill="black"/>
<path d="M28.8998 25.1002C27.3998 26.3002 25.3998 26.5002 23.5998 26.5002C21.4998 26.5002 19.3998 25.8002 17.9998 24.0002C16.7998 22.6002 16.2998 20.9002 16.2998 18.9002C16.2998 17.0002 16.6998 14.9002 17.9998 13.3002C19.0998 11.8002 20.7998 10.7002 22.8998 10.7002C24.8998 10.7002 26.4998 11.6002 27.5998 13.3002C28.5998 14.7002 28.8998 16.7002 28.8998 18.6002V19.3002H17.7998C17.8998 20.9002 18.2998 22.2002 19.1998 23.1002C20.2998 24.5002 21.8998 25.0002 23.5998 25.0002C25.3998 25.0002 27.0998 24.6002 28.4998 23.5002L28.8998 25.1002ZM27.3998 18.1002C27.3998 16.7002 27.0998 15.2002 26.2998 13.9002C25.5998 12.7002 24.2998 12.0002 22.7998 12.0002C21.2998 12.0002 19.9998 12.6002 19.0998 14.0002C18.1998 15.0002 17.7998 16.5002 17.6998 18.1002H27.3998Z" fill="black"/>
<path d="M43.0996 25.7002C41.7996 26.2002 40.2996 26.4002 38.4996 26.4002C36.3996 26.4002 34.1996 25.7002 32.7996 23.8002C31.6996 22.3002 31.0996 20.6002 31.0996 18.6002C31.0996 16.7002 31.4996 14.6002 32.8996 13.2002C34.1996 11.6002 36.0996 10.7002 38.4996 10.7002C39.8996 10.7002 41.4996 11.0002 42.7996 11.6002L42.3996 12.9002C40.9996 12.4002 39.6996 12.0002 38.4996 12.0002C36.6996 12.0002 35.0996 12.6002 34.0996 14.0002C33.0996 15.4002 32.6996 17.0002 32.6996 18.6002C32.6996 20.1002 32.9996 21.7002 33.9996 22.9002C35.0996 24.4002 36.5996 25.0002 38.4996 25.0002C39.8996 25.0002 41.2996 24.7002 42.6996 24.1002L43.0996 25.7002Z" fill="black"/>
<path d="M50.1004 26.3996C47.0004 25.7996 45.9004 23.6996 45.9004 20.2996V6.09961H47.4004V10.7996H50.5004V12.1996H47.4004V20.4996C47.4004 22.9996 47.8004 24.6996 50.4004 25.2996L50.1004 26.3996Z" fill="black"/>
<path d="M52.0996 18.6002C52.0996 13.9002 55.0996 10.7002 59.2996 10.7002C63.5996 10.7002 66.5996 13.9002 66.5996 18.6002C66.5996 23.3002 63.5996 26.4002 59.2996 26.4002C54.9996 26.4002 52.0996 23.3002 52.0996 18.6002ZM64.9996 18.6002C64.9996 14.6002 62.8996 12.0002 59.1996 12.0002C55.6996 12.0002 53.4996 14.7002 53.4996 18.6002C53.4996 22.5002 55.5996 25.1002 59.1996 25.1002C62.7996 25.2002 64.9996 22.6002 64.9996 18.6002Z" fill="black"/>
<path d="M69 26.4002V10.7002H70.4L70.5 13.3002C71.7 12.1002 73.3 11.0002 75.1 10.7002L75.6 12.1002C73.7 12.1002 72 13.4002 70.5 14.8002V26.4002H69Z" fill="black"/>
<path d="M77.9 22.9004L78.1 22.8004C80 23.5004 81.9 24.1004 84.1 24.1004C85.2 24.1004 86.6 23.9004 87.6 23.4004C88.7 22.9004 89.4 21.9004 89.4 20.5004C89.4 18.8004 87.5 18.0004 86 17.6004C84.6 17.2004 83.2 16.9004 81.8 16.3004C79.7 15.4004 77.7 14.2004 77.7 11.6004C77.7 9.70039 78.6 8.30039 79.8 7.30039C81.1 6.30039 82.8 5.90039 84.5 5.90039C86.7 5.90039 89.1 7.20039 91.2 8.20039L90.5 10.5004L90.3 10.6004C88.7 9.50039 86.7 8.30039 84.5 8.30039C83.4 8.30039 82.4 8.50039 81.6 8.90039C80.9 9.30039 80.3 10.0004 80.3 10.9004C80.3 12.3004 81.6 13.0004 83 13.5004C84.6 14.0004 86.2 14.4004 87.9 15.0004C89 15.4004 90 16.0004 90.8 16.8004C91.5 17.7004 92.1 18.9004 92.1 20.2004C92.1 22.1004 91.1 23.8004 89.4 24.9004C87.8 25.9004 85.9 26.4004 84 26.4004C81.7 26.4004 79.4 26.0004 77 25.1004L77.9 22.9004Z" fill="black"/>
<path d="M100.6 26.3996C98.7996 26.2996 96.9996 25.8996 95.6996 24.2996C95.0996 23.2996 94.5996 22.1996 94.5996 20.9996V6.09961H97.3996V10.7996H101.1V12.9996H97.3996V20.9996C97.3996 21.6996 97.5996 22.4996 98.0996 23.0996C98.7996 23.7996 99.9996 24.0996 101.1 24.0996L101.3 24.1996L100.6 26.3996Z" fill="black"/>
<path d="M102.6 18.6002C102.6 14.0002 105.4 10.7002 109.9 10.7002C114.4 10.7002 117.2 14.1002 117.2 18.6002C117.2 23.2002 114.4 26.5002 109.9 26.5002C105.4 26.4002 102.6 23.1002 102.6 18.6002ZM114.3 18.6002C114.3 15.2002 112.6 13.0002 109.8 13.0002C107 13.0002 105.3 15.1002 105.3 18.6002C105.3 22.1002 107 24.2002 109.8 24.2002C112.6 24.1002 114.3 22.1002 114.3 18.6002Z" fill="black"/>
<path d="M130.6 25.5998C129.3 26.0998 127.9 26.4998 126.3 26.4998C124.5 26.4998 122.7 25.8998 121.3 24.5998C119.7 23.0998 119 20.9998 119 18.5998C119 16.6998 119.5 14.4998 120.9 12.9998C122.3 11.4998 124.2 10.7998 126.2 10.7998C127.8 10.7998 129.1 11.1998 130.5 11.6998L129.8 13.8998C128.6 13.4998 127.7 13.1998 126.5 13.1998C125.2 13.1998 123.9 13.5998 123.1 14.6998C122.3 15.7998 121.8 17.1998 121.8 18.6998C121.8 20.0998 122.2 21.6998 123.1 22.7998C124 23.7998 125 24.1998 126.5 24.2998C127.8 24.2998 128.6 23.8998 129.8 23.5998L130 23.6998L130.6 25.5998Z" fill="black"/>
<path d="M142.4 26.3996L137.1 18.7996L135.8 19.9996V26.3996H133V6.09961H135.8V16.6996L142 10.7996H145.6L138.9 17.1996L145.9 26.5996H142.4V26.3996Z" fill="black"/>
<path d="M151.9 10.9004L150.5 9.00039H149.6V10.8004H149V5.90039H150.3C150.8 5.90039 151.3 5.90039 151.7 6.20039C152.1 6.50039 152.3 6.90039 152.3 7.50039C152.3 8.10039 152 8.80039 151.3 8.90039L152.8 10.8004H151.9V10.9004ZM150.3 8.50039C150.7 8.50039 151 8.50039 151.3 8.30039C151.5 8.10039 151.6 7.90039 151.6 7.60039C151.6 7.30039 151.5 7.00039 151.3 6.90039C151.1 6.70039 150.7 6.70039 150.3 6.70039H149.7V8.60039H150.3V8.50039Z" fill="black"/>
<path d="M150.6 12.8004C148.3 12.8004 146.4 11.0004 146.4 8.60039C146.4 6.20039 148.2 4.40039 150.6 4.40039C153 4.40039 154.8 6.30039 154.8 8.60039C154.8 10.9004 152.9 12.8004 150.6 12.8004ZM150.6 4.90039C148.6 4.90039 146.9 6.60039 146.9 8.60039C146.9 10.6004 148.6 12.3004 150.6 12.3004C152.6 12.3004 154.3 10.6004 154.3 8.60039C154.4 6.50039 152.7 4.90039 150.6 4.90039Z" fill="black"/>
</svg>
