<svg width="122" height="17" viewBox="0 0 122 17" fill="none" xmlns="http://www.w3.org/2000/svg">
<path d="M112.598 16.7951C113.373 16.7951 114.148 16.7951 114.923 16.7951C114.923 14.6774 114.923 12.5597 114.923 10.442C114.923 10.2131 114.95 10.0147 115.005 9.82568C115.06 9.63671 115.144 9.45567 115.268 9.26394C116.041 8.06843 116.814 6.87291 117.587 5.6774C118.688 3.97262 119.791 2.26837 120.893 0.563481C121.013 0.378094 121.133 0.19271 121.253 0.00732627C120.266 0.00732627 119.278 0.00732627 118.291 0.00732627C118.249 0.0725589 118.208 0.137788 118.166 0.203018C116.697 2.4738 115.23 4.74549 113.76 7.01884C112.291 4.7455 110.823 2.47374 109.353 0.201315C109.311 0.136653 109.269 0.0719878 109.227 0.00732341C108.24 0.00732641 107.254 0.00732627 106.268 0.00732627C106.388 0.192728 106.507 0.378131 106.627 0.563535C107.331 1.65063 108.034 2.73792 108.737 3.82536C109.439 4.9128 110.142 6.00038 110.844 7.08831C111.086 7.4629 111.327 7.83754 111.57 8.21169C111.812 8.58584 112.055 8.95952 112.293 9.33659C112.314 9.37028 112.336 9.404 112.355 9.43888C112.374 9.47375 112.391 9.50978 112.408 9.54604C112.439 9.61386 112.468 9.68246 112.492 9.75282C112.516 9.82319 112.536 9.89532 112.551 9.96819C112.568 10.046 112.58 10.1247 112.587 10.2038C112.595 10.2829 112.598 10.3625 112.598 10.442C112.598 12.5597 112.598 14.6774 112.598 16.7951Z" fill="#252525"/>
<path fill-rule="evenodd" clip-rule="evenodd" d="M104.025 16.7876H101.563H101.324L101.23 16.5682C100.568 15.0198 99.9102 13.47 99.2519 11.9196C99.1044 11.5722 98.9568 11.2248 98.8093 10.8774C98.4661 10.0695 97.6804 9.55147 96.7987 9.55147H91.1361V16.7876H88.8115V0.0012207H97.8635C98.2787 0.0012207 98.6946 0.00950503 99.1072 0.0556029C99.321 0.0794935 99.534 0.113541 99.744 0.160468C99.9628 0.209353 100.178 0.272216 100.388 0.349985C100.611 0.432494 100.828 0.531784 101.036 0.646861C101.174 0.722841 101.307 0.805701 101.436 0.895477C101.615 1.02079 101.785 1.15957 101.944 1.31019C102.263 1.61276 102.536 1.96311 102.755 2.34337C102.984 2.73932 103.154 3.16771 103.271 3.60974C103.384 4.03833 103.445 4.47975 103.457 4.92259C103.469 5.36447 103.431 5.80776 103.342 6.24079C103.298 6.45477 103.241 6.66623 103.172 6.87349C103.124 7.01713 103.07 7.15873 103.01 7.29775C102.92 7.50586 102.816 7.70816 102.696 7.90047C102.58 8.08576 102.449 8.26177 102.305 8.42578C102.233 8.50687 102.158 8.58502 102.08 8.65948C102.006 8.73 101.928 8.79719 101.848 8.86091C101.697 8.98061 101.537 9.08804 101.37 9.18436C101.216 9.27344 101.056 9.35303 100.894 9.42634C101.432 10.6915 101.97 11.957 102.507 13.2211L104.025 16.7876ZM91.1382 7.07409H97.8656L97.8951 7.07409C98.2484 7.07411 98.6022 7.07413 98.9544 7.04601C100.305 7.04601 100.846 6.1957 100.941 5.08575C101.052 3.78279 100.614 2.6335 99.0916 2.51956C98.7629 2.48626 98.4321 2.47943 98.1017 2.47943L91.1382 2.48032V7.07409Z" fill="#252525"/>
<path d="M83.9193 16.7876C84.7393 16.7876 85.5593 16.7876 86.3793 16.7876C84.0121 11.1921 81.6449 5.59669 79.2777 0.00122196C78.7856 0.00122196 78.2936 0.00122196 77.8015 0.00122196C77.5436 0.00122196 77.2856 0.00364082 77.028 0.0195649C76.7818 0.0347916 76.5359 0.0623698 76.2948 0.114089C76.0509 0.166404 75.8118 0.243425 75.5853 0.347459C75.3417 0.459363 75.1125 0.602524 74.9027 0.769461C74.6915 0.937619 74.5 1.1299 74.3295 1.33883C74.1665 1.53856 74.0225 1.75351 73.8928 1.97627C73.7687 2.18939 73.6576 2.40966 73.5541 2.63338C73.4569 2.84336 73.3664 3.05637 73.276 3.26932C71.365 7.77542 69.454 12.2815 67.543 16.7876C68.4432 16.7876 69.3434 16.7876 70.2436 16.7876C70.2747 16.7142 70.3059 16.6407 70.337 16.5673C71.2054 14.5202 72.0739 12.4721 72.9433 10.423C73.816 8.35808 74.6903 6.29452 75.5662 4.2333C75.5851 4.18961 75.604 4.14593 75.6229 4.10224C75.6756 3.97958 75.7284 3.85691 75.7838 3.73543C75.8101 3.67785 75.837 3.62053 75.8643 3.56344C75.8908 3.50815 75.9177 3.45307 75.9457 3.39855C75.9766 3.33855 76.0089 3.27924 76.0426 3.22079C76.0702 3.17279 76.0989 3.12537 76.1291 3.07892C76.1768 3.00567 76.2284 2.93484 76.2859 2.86898C76.2867 2.86806 76.2875 2.86714 76.2884 2.86622C76.2891 2.86528 76.2899 2.86435 76.2907 2.86341C76.3401 2.80451 76.399 2.74775 76.4619 2.70057C76.4663 2.69713 76.4707 2.69368 76.4751 2.69024C76.4793 2.68657 76.4835 2.68291 76.4877 2.67924C76.4879 2.67911 76.5087 2.66423 76.5364 2.64699C76.5711 2.62743 76.5979 2.61472 76.5981 2.61464C76.6022 2.6131 76.6063 2.61157 76.6104 2.61004C76.6144 2.60824 76.6184 2.60645 76.6224 2.60465C76.6551 2.58979 76.6804 2.57999 76.7177 2.56733C76.7526 2.55536 76.787 2.54666 76.8205 2.54133C76.8278 2.54017 76.8351 2.53901 76.8424 2.53785C76.8495 2.53581 76.8566 2.53378 76.8637 2.53174C76.8854 2.52552 76.9277 2.51797 76.9928 2.51024C76.9953 2.50994 76.9979 2.50964 77.0004 2.50934C77.0029 2.50893 77.0055 2.50853 77.008 2.50812C77.0607 2.49959 77.1298 2.49318 77.1965 2.48955C77.2859 2.48601 77.3782 2.48247 77.4654 2.48065C77.5189 2.48065 77.5723 2.48065 77.6258 2.48065C78.6942 5.00286 79.7604 7.52577 80.8271 10.048C81.7469 12.2222 82.6654 14.3946 83.5857 16.5671C83.6169 16.6406 83.648 16.7141 83.6791 16.7876C83.7592 16.7876 83.8392 16.7876 83.9193 16.7876Z" fill="#252525"/>
<path d="M59.8481 16.7876H62.1726V2.48065H68.0207V0.00122196H54V2.48065H59.8481V16.7876Z" fill="#252525"/>
<path d="M45.1368 0.00121984C44.5466 0.00121984 43.9558 0.0394622 43.3728 0.131309C42.8449 0.214462 42.3234 0.341556 41.8218 0.525301C41.3549 0.696375 40.9053 0.916556 40.4899 1.18916C40.087 1.45354 39.7161 1.76723 39.3903 2.12167C39.0587 2.48251 38.7737 2.88558 38.5362 3.31398C38.2834 3.77002 38.0844 4.25476 37.93 4.75254C37.7606 5.29886 37.6449 5.86087 37.5687 6.42762C37.4836 7.06032 37.4478 7.69892 37.4464 8.33722C37.4465 8.35391 37.4463 8.39151 37.4463 8.4293C37.4459 9.03406 37.4799 9.69031 37.5629 10.3327C37.6373 10.9083 37.751 11.4728 37.9183 12.024C38.0702 12.5247 38.2664 13.0145 38.5172 13.4753C38.7513 13.9054 39.0331 14.3103 39.363 14.6721C39.686 15.0263 40.0552 15.3391 40.4564 15.6023C40.8718 15.8748 41.3215 16.094 41.789 16.2644C42.2922 16.4478 42.8159 16.5747 43.3427 16.6576C43.6334 16.7034 43.9251 16.7357 44.2269 16.7572C44.3779 16.7679 44.5314 16.7759 44.6669 16.7802C44.8024 16.7845 44.9199 16.7852 45.0322 16.7858C45.6991 16.7891 46.1831 16.788 46.6936 16.7876C47.2041 16.7872 47.7411 16.7874 48.2736 16.7875C49.3386 16.7878 50.3854 16.7875 51.4437 16.7876C51.4438 16.6683 51.4436 16.5548 51.4436 16.3691C51.4437 15.9466 51.4446 15.1506 51.4469 14.7286C51.4479 14.542 51.4492 14.4285 51.4498 14.3082C50.4003 14.3083 49.3223 14.3079 48.28 14.3082C47.2376 14.3085 46.231 14.3094 45.0145 14.3063C44.9325 14.3061 44.8496 14.3059 44.7429 14.3026C44.6362 14.2992 44.5057 14.2929 44.379 14.284C44.152 14.2681 43.9369 14.2442 43.7217 14.2101C43.3551 14.1521 42.9883 14.0645 42.6375 13.9362C42.4895 13.8821 42.3443 13.8207 42.2025 13.7517C42.0637 13.6807 41.9458 13.6121 41.8267 13.5336C41.8262 13.5333 41.8258 13.533 41.8246 13.5322C41.8235 13.5315 41.8231 13.5312 41.8226 13.531C41.7131 13.4616 41.6065 13.3809 41.4999 13.2884C41.3901 13.1964 41.2973 13.1076 41.2048 13.0076C41.1162 12.9067 41.021 12.793 40.9438 12.6794C40.9434 12.6788 40.943 12.6781 40.942 12.6766C40.9409 12.6752 40.9405 12.6745 40.94 12.6739C40.8516 12.5505 40.7692 12.4149 40.7012 12.2955C40.5438 12.0043 40.4142 11.6838 40.2992 11.3131C40.241 11.1209 40.1911 10.92 40.1447 10.708C40.0965 10.4816 40.057 10.2531 40.0264 10.0236C39.9943 9.7748 39.9759 9.51336 39.9567 9.2554C39.9415 8.97851 39.9349 8.67463 39.9341 8.42173C39.934 8.38541 39.934 8.35014 39.9341 8.31381C39.9349 8.05975 39.9415 7.75392 39.9604 7.50011C39.9733 7.2781 39.995 7.03966 40.0306 6.73879C40.0933 6.3061 40.1776 5.87573 40.306 5.45771C40.4095 5.12103 40.5415 4.79236 40.7117 4.4837C40.7842 4.35221 40.8636 4.22436 40.9516 4.10272C41.0333 3.98988 41.1223 3.8824 41.217 3.78012C41.2178 3.77925 41.2186 3.77839 41.2194 3.77752C41.2203 3.77645 41.2207 3.77601 41.2211 3.77558C41.3101 3.6757 41.4017 3.58624 41.5053 3.50352C41.5061 3.50284 41.507 3.50216 41.5092 3.50044C41.5109 3.49896 41.5126 3.49748 41.5143 3.496C41.5902 3.43063 41.6701 3.36992 41.7521 3.31239C41.7966 3.28123 41.8417 3.25102 41.8874 3.22179C41.9321 3.19318 41.9775 3.16552 42.0235 3.13893C42.0705 3.11172 42.1182 3.08564 42.1664 3.06071C42.217 3.03462 42.2682 3.0098 42.32 2.98623C42.4294 2.93639 42.5414 2.89208 42.6549 2.85218C42.6565 2.85161 42.6581 2.85103 42.6597 2.85046C42.6614 2.84984 42.663 2.84922 42.6646 2.8486C42.8277 2.78598 42.9953 2.73676 43.1651 2.69465C43.3559 2.64733 43.5495 2.60899 43.7423 2.57888C43.9592 2.54503 44.175 2.52158 44.4028 2.50545C44.5296 2.49648 44.6602 2.48978 44.7682 2.48629C44.8763 2.4828 44.9618 2.48254 45.0463 2.48229C46.2528 2.47876 47.2603 2.47987 48.3017 2.48018C49.3431 2.4805 50.4184 2.48002 51.4666 2.48018C51.4666 1.65386 51.4666 0.827541 51.4666 0.00121984C49.3567 0.00121984 47.2467 0.00121984 45.1368 0.00121984Z" fill="#252525"/>
<path d="M21.2686 16.7876H34.8555V14.3087H23.7567V9.55194H32.8976V7.23503H23.7567V2.48065H34.8555V0.00122196H21.2686V16.7876Z" fill="#252525"/>
<path d="M7.34577 16.7869C7.7577 16.7869 8.16963 16.7869 8.58157 16.7869C8.90019 16.7869 9.21886 16.7835 9.53647 16.7549C9.6896 16.7411 9.84248 16.7214 9.99346 16.6931C10.144 16.6648 10.2927 16.6279 10.4382 16.5807C10.7454 16.4809 11.0384 16.335 11.3039 16.1506C11.4434 16.0536 11.5752 15.9461 11.6992 15.8301C11.8231 15.7141 11.9392 15.5896 12.0469 15.4585C12.1485 15.3349 12.2427 15.2054 12.3306 15.0718C12.4185 14.9382 12.5 14.8005 12.5769 14.6603C12.6493 14.5284 12.7174 14.3943 12.7818 14.2584C12.8462 14.1225 12.9069 13.9849 12.9669 13.847C13.1559 13.4126 13.338 12.9752 13.5219 12.5386C13.7057 12.102 13.8913 11.6661 14.0764 11.23C14.4468 10.3579 14.8156 9.48514 15.1852 8.61273C15.4717 7.93665 15.7586 7.26079 16.0454 6.58485C16.3322 5.90891 16.6188 5.2329 16.9056 4.55698C17.1925 3.88105 17.4795 3.20521 17.7665 2.52936C18.0535 1.85351 18.3404 1.17766 18.6275 0.501847C18.6985 0.334727 18.7695 0.167607 18.8405 0.000489542C17.9389 0.000489542 17.0374 0.000489542 16.1358 0.000489542C16.1047 0.0739232 16.0735 0.147358 16.0424 0.220794C15.1754 2.26442 14.3089 4.30822 13.4436 6.35252C12.5447 8.47268 11.6458 10.5928 10.7457 12.7125C10.6912 12.8409 10.6366 12.9694 10.5783 13.0962C10.5302 13.2011 10.4795 13.3048 10.4257 13.407C10.379 13.4955 10.33 13.5829 10.2767 13.6675C10.236 13.732 10.1928 13.795 10.146 13.8554C10.0807 13.9395 10.0085 14.0187 9.92592 14.086C9.88331 14.1145 9.85874 14.1323 9.85858 14.1324C9.8567 14.1334 9.85483 14.1344 9.85295 14.1355C9.85106 14.1365 9.84916 14.1374 9.84727 14.1384C9.8325 14.1467 9.81437 14.1568 9.79579 14.1671C9.7715 14.1778 9.74721 14.1885 9.72292 14.1991C9.69439 14.2097 9.67883 14.216 9.6787 14.216C9.67708 14.2165 9.67548 14.217 9.67387 14.2175C9.67226 14.218 9.67064 14.2185 9.66903 14.2189C9.62978 14.2315 9.59344 14.2415 9.55195 14.251C9.49131 14.2629 9.44094 14.2719 9.38482 14.2803C9.31549 14.2872 9.24943 14.293 9.18204 14.2962C9.18029 14.2963 9.17854 14.2964 9.17679 14.2965C9.17505 14.2966 9.17331 14.2968 9.17156 14.2969C9.0456 14.3066 8.90354 14.308 8.75688 14.3081C6.73803 9.5389 4.71917 4.76969 2.70033 0.000489542C1.80022 0.000489542 0.900109 0.000489542 -8.06643e-08 0.000489542C0.0706544 0.167454 0.141311 0.334419 0.211962 0.501383C2.47789 5.85617 4.74247 11.2097 7.01219 16.5664C7.04332 16.6399 7.07446 16.7134 7.10559 16.7869C7.18565 16.7869 7.26571 16.7869 7.34577 16.7869Z" fill="#252525"/>
</svg>
